<svg width="33" height="38" xmlns="http://www.w3.org/2000/svg">

 <g>
  <title>background</title>
  <rect fill="none" id="canvas_background" height="40" width="35" y="-1" x="-1"/>
 </g>
 <g>
  <title>Layer 1</title>
  <g id="svg_1" fill-rule="evenodd" fill="none">
   <g id="svg_2" fill="#D9514B">
    <path id="svg_3" d="m12.726,23.67a1.17,1.17 0 0 1 -1.13,-0.862a6.837,6.837 0 0 1 -0.243,-1.813l0,-5.63c0,-2.213 1.8,-4.01 4.01,-4.01c1.549,0 2.975,0.905 3.633,2.307a1.173,1.173 0 0 1 -2.122,0.996a1.668,1.668 0 0 0 -3.177,0.706l0,5.631c0,0.405 0.053,0.807 0.159,1.192a1.17,1.17 0 0 1 -1.13,1.482"/>
    <path id="svg_4" d="m18.202,27.843a6.882,6.882 0 0 1 -3.124,-0.752a1.173,1.173 0 0 1 -0.507,-1.578a1.17,1.17 0 0 1 1.577,-0.507a4.51,4.51 0 0 0 6.559,-4.011l0,-5.631c0,-4.049 -3.294,-7.344 -7.344,-7.344a1.172,1.172 0 0 1 0,-2.344c5.34,0 9.687,4.346 9.687,9.688l0,5.631a6.856,6.856 0 0 1 -6.848,6.848"/>
    <path id="svg_5" d="m18.202,33.52c-6.906,0 -12.525,-5.62 -12.525,-12.525l0,-5.63a9.731,9.731 0 0 1 4.799,-8.367a1.17,1.17 0 1 1 1.184,2.023a7.378,7.378 0 0 0 -3.64,6.343l0,5.631c0,5.614 4.568,10.181 10.182,10.181c1.654,0 3.23,-0.384 4.686,-1.139a1.17,1.17 0 1 1 1.08,2.08a12.557,12.557 0 0 1 -5.766,1.402"/>
    <path id="svg_6" d="m26.965,29.384a1.17,1.17 0 0 1 -0.903,-1.917a10.194,10.194 0 0 0 2.321,-6.472l0,-5.631c0,-5.4 -3.395,-10.301 -8.449,-12.196c-0.002,0 -1.304,-0.433 -2.309,-0.614c-1.054,-0.191 -2.267,-0.211 -2.279,-0.211c-7.162,0 -13.003,5.841 -13.003,13.021l0,5.631a1.17,1.17 0 1 1 -2.343,0l0,-5.631c0,-8.472 6.892,-15.364 15.363,-15.364c0.075,0.001 1.436,0.023 2.679,0.247c1.185,0.214 2.615,0.692 2.675,0.713c6.002,2.249 10.01,8.033 10.01,14.404l0,5.631c0,2.901 -1.015,5.728 -2.857,7.963c-0.233,0.28 -0.568,0.426 -0.905,0.426m-18.699,6.616c-0.237,0 -0.477,-0.071 -0.684,-0.221a18.308,18.308 0 0 1 -6.837,-9.613a1.171,1.171 0 1 1 2.247,-0.665a15.946,15.946 0 0 0 5.959,8.376a1.173,1.173 0 0 1 -0.685,2.123"/>
   </g>
  </g>
 </g>
</svg>